<svg xmlns="http://www.w3.org/2000/svg" viewBox="0 0 175 150" class="svg-logo" width="315" height="215" style="height: auto;">
<rect rx="10" ry="10" width="100%" height="100%" 
fill="rgba(233, 229, 248, 0)">
<!-- Color De Fondo  "rgba(233, 229, 248, 1.0)"-->
</rect>
<g data-element="wrapper" transform="translate(0.87499999999852 0.65000209808212) scale(0.5500000000000094)">
<g data-element="container" transform="translate(81.30927191840279 31.30965234362891) scale(0.25396825396825395)">
<g>

<!-- Flores alrededor -->
    <path id="frame_x5F_1_90_" d="M532.881,412.529c0.725-0.413,1.475-0.761,2.178-1.217c13.303-8.627,21.06-24.512,18.737-40.309c-2.206-15.007-13.666-27.822-28.828-30.419c-1.23-0.209-2.516-0.318-3.809-0.377v-80.478c1.286-0.06,2.582-0.106,3.809-0.314c15.528-2.646,27.1-16.021,28.978-31.418c1.887-15.472-5.913-30.904-18.89-39.31c-0.703-0.456-1.453-0.802-2.174-1.216
                c12.623-7.559,21.795-19.476,25.83-33.704l1.064-3.746l-3.778-0.954c-14.343-3.617-29.247-1.639-42.105,5.518
                c0.003-0.831,0.078-1.656,0.034-2.491c-0.787-15.439-10.253-29.924-24.595-36.014c-14.267-6.058-31.651-2.738-41.699,9.388
                c-0.797,0.962-1.534,2.02-2.231,3.11l-69.645-40.209c0.596-1.148,1.142-2.315,1.575-3.484c5.479-14.764-0.337-31.492-12.724-40.814
                c-12.446-9.367-29.713-10.328-43.476-3.293c-0.747,0.381-1.425,0.857-2.143,1.276c-0.235-14.71-5.968-28.611-16.275-39.221
                L300,0.037l-2.714,2.796C286.98,13.44,281.247,27.34,281.012,42.054c-0.719-0.419-1.396-0.895-2.143-1.276
                c-13.762-7.035-31.031-6.074-43.476,3.293c-12.385,9.322-18.201,26.044-12.727,40.808c0.433,1.172,0.982,2.341,1.578,3.49
                l-69.645,40.209c-0.697-1.087-1.434-2.145-2.231-3.11c-22.931-27.675-64.666-5.397-66.294,26.624
                c-0.044,0.836,0.031,1.661,0.035,2.495c-12.855-7.156-27.766-9.133-42.105-5.519l-3.778,0.954l1.064,3.746
                c4.035,14.228,13.207,26.144,25.827,33.702c-0.722,0.414-1.472,0.762-2.174,1.217c-13.302,8.626-21.059,24.513-18.737,40.309
                c2.205,14.998,13.667,27.835,28.828,30.419c1.227,0.209,2.523,0.254,3.809,0.314v80.482c-1.293,0.058-2.579,0.166-3.809,0.373
                c-15.202,2.604-26.567,15.409-28.828,30.418c-2.377,15.776,5.469,31.707,18.737,40.31c0.703,0.455,1.453,0.803,2.174,1.217
                c-12.62,7.558-21.792,19.474-25.827,33.702l-1.064,3.746l3.778,0.954c4.713,1.189,9.485,1.779,14.23,1.779
                c9.696,0,19.241-2.509,27.876-7.316c-0.003,0.839-0.078,1.669-0.035,2.512c1.628,32.048,43.372,54.254,66.297,26.624
                c0.797-0.963,1.534-2.022,2.228-3.109l69.645,40.209c-0.596,1.149-1.145,2.316-1.575,3.483
                c-5.484,14.763,0.341,31.491,12.722,40.815c12.441,9.369,29.719,10.326,43.477,3.293c0.747-0.381,1.425-0.857,2.143-1.276
                c0.235,14.714,5.968,28.614,16.272,39.221l2.714,2.796l2.714-2.796c10.307-10.61,16.04-24.51,16.275-39.221
                c0.719,0.419,1.396,0.895,2.143,1.276c13.76,7.034,31.034,6.075,43.477-3.293c12.381-9.32,18.205-26.048,12.726-40.808
                c-0.433-1.17-0.982-2.339-1.578-3.489l69.642-40.208c0.7,1.089,1.434,2.148,2.234,3.111c10.054,12.121,27.434,15.452,41.706,9.383
                c14.335-6.095,23.801-20.57,24.588-36.007c0.044-0.842-0.031-1.674-0.034-2.512c8.638,4.804,18.18,7.313,27.876,7.313
                c4.741,0,9.52-0.59,14.23-1.779l3.778-0.954l-1.064-3.746C554.676,432.004,545.504,420.087,532.881,412.529z M516.853,438.441
                c-10.147-5.861-17.794-14.945-21.848-25.855c11.465-1.952,23.163,0.138,33.313,5.993c10.147,5.861,17.794,14.945,21.848,25.855
                C538.692,446.38,527.001,444.297,516.853,438.441z M288.536,557.02c0-11.719,4.041-22.883,11.462-31.848
                c7.421,8.968,11.465,20.132,11.465,31.848s-4.045,22.88-11.465,31.848C292.578,579.903,288.536,568.739,288.536,557.02z
                M302.057,494.218c-0.784,1.472-1.421,3.026-2.058,4.58c-0.634-1.553-1.271-3.108-2.055-4.58c-2.168-4.076-4.835-7.81-7.926-11.101
                c-1.465-1.561-3.031-2.993-4.647-4.352c4.829,0.392,9.699,0.646,14.628,0.646c4.932,0,9.802-0.254,14.634-0.646
                c-1.619,1.36-3.188,2.793-4.65,4.352C306.892,486.408,304.225,490.142,302.057,494.218z M334.608,468.341l-1.208,0.217
                c-10.81,2.138-21.974,3.285-33.401,3.285c-11.428,0-22.589-1.145-33.395-3.284c-14.286-4.319-28.176-7.406-41.759-14.044
                c-13.189-6.446-25.539-14.593-36.669-24.164c-22.772-19.581-40.311-45.092-50.277-73.434c-22.187-63.1-4.813-134.855,43.407-181.028
                c11.893-11.388,25.412-21.069,40.038-28.636c14.664-7.587,29.671-11.1,45.261-15.813c10.806-2.138,21.967-3.284,33.395-3.284
                c11.428,0,22.592,1.146,33.401,3.285c14.048,4.265,27.75,7.278,41.139,13.755c14.016,6.78,27.093,15.475,38.781,25.76
                c22.782,20.046,39.643,45.764,49.558,74.38c5.783,17.185,8.965,35.554,8.965,54.665c0,19.107-3.182,37.474-8.965,54.656
                C445.219,412.048,392.733,456.408,334.608,468.341z M49.833,444.435c4.054-10.91,11.701-19.994,21.848-25.855
                c10.151-5.855,21.832-7.945,33.313-5.993c-4.054,10.91-11.701,19.99-21.848,25.852C73.002,444.297,61.324,446.377,49.833,444.435z
                M137.865,376.735c4.217,8.875,9.153,17.338,14.713,25.342c-2.011-0.733-4.063-1.381-6.172-1.875
                c-4.39-1.032-8.974-1.475-13.574-1.311c-1.666,0.056-3.332,0.281-4.995,0.507c1.029-1.326,2.055-2.655,2.937-4.069
                c2.444-3.916,4.346-8.092,5.651-12.413C137.043,380.877,137.495,378.81,137.865,376.735z M136.425,217.09
                c-1.302-4.324-3.207-8.5-5.651-12.416c-0.882-1.415-1.908-2.745-2.937-4.073c1.663,0.227,3.326,0.452,4.992,0.508
                c4.55,0.162,9.144-0.273,13.577-1.312c2.109-0.494,4.161-1.141,6.172-1.874c-5.56,8.003-10.496,16.467-14.713,25.341
                C137.495,221.193,137.043,219.126,136.425,217.09z M49.833,155.565c11.465-1.952,23.166,0.138,33.313,5.996
                c10.147,5.861,17.794,14.942,21.848,25.855c-11.468,1.942-23.166-0.141-33.313-5.996C61.534,175.559,53.887,166.475,49.833,155.565z
                M299.998,11.132c7.421,8.968,11.465,20.132,11.465,31.848s-4.045,22.88-11.465,31.848c-7.421-8.965-11.462-20.128-11.462-31.848
                C288.536,31.261,292.578,20.097,299.998,11.132z M297.943,105.782c0.784-1.472,1.421-3.026,2.055-4.58
                c0.637,1.553,1.274,3.108,2.058,4.58c2.174,4.082,4.841,7.819,7.923,11.101c1.462,1.559,3.031,2.992,4.65,4.352
                c-4.832-0.392-9.702-0.646-14.631-0.646c-4.929,0-9.799,0.254-14.628,0.646c1.619-1.36,3.185-2.791,4.647-4.349
                C293.102,113.601,295.769,109.864,297.943,105.782z M516.853,161.562c10.148-5.855,21.836-7.932,33.313-5.996
                c-4.054,10.91-11.701,19.994-21.848,25.855c-10.144,5.858-21.832,7.938-33.313,5.996
                C499.059,176.503,506.706,167.42,516.853,161.562z M462.134,223.265c-4.217-8.875-9.153-17.338-14.713-25.342
                c2.011,0.733,4.063,1.381,6.172,1.875c4.432,1.039,9.026,1.475,13.574,1.312c1.666-0.056,3.332-0.281,4.995-0.508
                c-1.029,1.327-2.055,2.655-2.937,4.069c-2.444,3.919-4.349,8.095-5.651,12.413C462.957,219.123,462.505,221.191,462.134,223.265z
                M462.134,376.735c0.37,2.075,0.822,4.143,1.44,6.181c1.305,4.321,3.207,8.497,5.651,12.41c0.882,1.415,1.911,2.746,2.937,4.073
                c-1.663-0.228-3.329-0.452-4.995-0.508c-4.587-0.163-9.181,0.282-13.574,1.311c-2.109,0.493-4.161,1.142-6.172,1.875
                C452.982,394.073,457.917,385.61,462.134,376.735z M538.09,201.182c8.419,9.399,11.137,23.419,5.745,34.988
                c-5.017,10.762-16.737,18.008-28.735,15.689c-10.849-2.097-19.941-12.852-16.548-24.191c1.549-5.178,6.249-9.851,11.917-9.863
                c3.497-0.007,8.846,2.547,7.832,6.894c-0.047,0.17-0.238,0.599-0.345,0.769c-1.139,1.748-0.649,4.088,1.095,5.234
                c1.751,1.139,4.092,0.653,5.24-1.092c0.467-0.719,1.098-2.011,1.368-3.15c1.875-7.816-4.776-14.674-12.08-15.958
                c-7.052-1.24-14.109,2.078-18.441,7.601c-10.893,13.888-2.13,33.756,13.185,39.646c1.707,0.659,3.486,1.113,5.268,1.465v81.572
                c-1.782,0.352-3.565,0.806-5.271,1.465c-15.27,5.917-24.125,25.751-13.181,39.647c4.35,5.523,11.386,8.847,18.456,7.595
                c7.309-1.294,13.93-8.118,12.065-15.953c-0.267-1.13-0.894-2.419-1.362-3.138c-1.136-1.748-3.451-2.225-5.196-1.104
                c-1.751,1.12-2.256,3.464-1.152,5.224c0.107,0.169,0.304,0.606,0.345,0.762c1.154,4.766-4.996,7.131-8.612,6.84
                c-5.804-0.466-10.116-5.415-11.376-10.84c-3.09-13.315,9.689-23.947,22.153-23.533c12.769,0.424,23.084,10.529,25.576,22.752
                c2.721,13.343-3.815,27.137-15.09,34.458c-2.134,1.381-4.396,2.454-6.699,3.357c-10.593-4.15-22.146-5.066-33.423-2.564
                c-2.887-1.625-5.585-3.508-7.951-5.708c-11.657-10.838-16.37-27.512-12.833-42.945c6.046-17.951,9.372-37.14,9.372-57.102
                c0-19.962-3.326-39.151-9.372-57.102c-3.536-15.434,1.174-32.108,12.833-42.948c2.375-2.206,5.08-4.095,7.976-5.723
                c4.167,0.924,8.368,1.462,12.551,1.462c7.135,0,14.18-1.39,20.853-4.005c2.3,0.9,4.556,1.971,6.69,3.353
                C533.54,196.723,535.946,198.791,538.09,201.182z M324.57,47.518c11.678-5.952,26.4-4.938,36.607,3.508
                c10.466,8.66,14.284,24.345,6.565,36.087c-6.21,9.447-20.157,14.024-29.542,6.234c-4.325-3.59-6.954-9.795-4.813-15.281
                c1.391-3.563,6.728-8.37,10.555-4.762c0.122,0.126,0.398,0.505,0.489,0.678c0.97,1.842,3.248,2.579,5.099,1.619
                c1.845-0.954,2.589-3.188,1.65-5.042c-0.389-0.769-1.199-1.958-2.039-2.752c-5.849-5.528-15.084-3.204-19.863,2.479
                c-4.606,5.478-5.247,13.266-2.637,19.769c6.569,16.368,28.152,18.703,40.928,8.411c1.424-1.148,2.708-2.465,3.903-3.833
                l70.646,40.787c-0.587,1.718-1.082,3.488-1.368,5.299c-2.482,15.852,9.595,32.994,26.723,31.379
                c7.323-0.691,14.258-5.258,16.825-12.31c2.546-6.994-0.072-16.126-7.79-18.444c-1.133-0.336-2.554-0.427-3.414-0.386
                c-2.068,0.122-3.618,1.886-3.517,3.957c0.094,2.071,1.845,3.517,3.954,3.599c0.213,0.022,0.668,0.044,0.81,0.079
                c4.289,1.323,3.844,7.196,2.077,10.242c-3.069,5.291-10.02,6.749-15.528,5.072c-12.591-3.834-15.82-19.44-9.892-30.005
                c6.066-10.81,19.376-15.394,31.092-12.311c13.902,3.658,23.561,16.716,24.281,30.892c0.129,2.535-0.069,5.025-0.442,7.475
                c-8.892,7.097-15.463,16.642-18.93,27.665c-2.846,1.688-5.827,3.077-8.921,4.032c-17.817,5.477-35.081-1.286-47.365-14.365
                c-11.745-12.505-25.264-23.33-40.05-32.031c-14.708-8.655-30.652-15.192-47.21-19.328c-9.364-2.339-17.691-4.79-25.07-11.404
                c-6.745-6.046-11.567-14.078-13.589-22.922c-0.722-3.143-1.007-6.417-0.97-9.733c7.813-8.517,12.796-18.981,14.493-30.234
                C320.256,50.09,322.314,48.67,324.57,47.518z M95.374,143.219c3.934-11.99,14.711-21.358,27.429-22.466
                c11.833-1.031,23.962,5.481,27.956,17.039c3.61,10.448-1.162,23.691-12.678,26.425c-5.25,1.247-11.661-0.488-14.498-5.388
                c-1.751-3.025-2.221-8.937,2.052-10.229c0.166-0.044,0.615-0.063,0.828-0.088c2.156,0.072,3.869-1.472,3.994-3.555
                c0.122-2.087-1.469-3.875-3.555-4.001c-0.847-0.041-2.284,0.05-3.433,0.392c-7.699,2.316-10.31,11.456-7.769,18.434
                c2.569,7.057,9.498,11.622,16.826,12.314c17.12,1.616,29.214-15.525,26.723-31.376c-0.282-1.807-0.781-3.58-1.368-5.302
                l70.646-40.787c1.195,1.369,2.479,2.686,3.903,3.833c12.756,10.276,34.386,7.967,40.927-8.408
                c2.502-6.265,2.032-13.636-2.128-19.102c-4.678-6.146-14.236-8.897-20.374-3.149c-0.86,0.816-1.663,2.008-2.046,2.771
                c-0.926,1.851-0.169,4.07,1.672,5.017c1.832,0.951,4.12,0.207,5.092-1.625c0.091-0.173,0.364-0.549,0.474-0.656
                c3.566-3.365,8.67,0.739,10.236,4.042c2.488,5.25,0.374,11.473-3.703,15.262c-9.283,8.628-23.853,4.338-30.323-5.506
                c-7.491-11.396-4.127-26.663,5.779-35.433c10.198-9.028,25.413-10.266,37.393-4.161c2.256,1.153,4.314,2.573,6.25,4.118
                c1.701,11.257,6.683,21.72,14.496,30.237c0.035,3.317-0.251,6.589-0.97,9.733c-4.401,19.232-19.511,29.659-37.648,34.076
                c-16.92,4.121-33.21,10.742-48.218,19.573c-14.496,8.53-27.78,19.103-39.363,31.298c-12.646,13.315-29.577,20.793-48.055,15.096
                c-3.097-0.952-6.075-2.341-8.921-4.029c-3.467-11.023-10.038-20.566-18.93-27.664c-0.373-2.45-0.571-4.942-0.442-7.479
                C93.787,149.381,94.373,146.265,95.374,143.219z M61.91,398.818c-8.423-9.39-11.138-23.426-5.745-34.988
                c5.019-10.76,16.736-18.01,28.735-15.689c10.849,2.099,19.94,12.85,16.549,24.19c-1.547,5.173-6.246,9.853-11.911,9.867
                c-3.499,0.009-8.853-2.548-7.838-6.897c0.047-0.173,0.245-0.609,0.351-0.778c1.104-1.76,0.599-4.104-1.152-5.224
                s-4.06-0.643-5.196,1.104c-0.468,0.719-1.095,2.008-1.365,3.144c-1.846,7.819,4.76,14.655,12.073,15.948
                c7.059,1.248,14.122-2.074,18.457-7.605c10.901-13.909,2.104-33.72-13.19-39.64c-1.707-0.659-3.486-1.113-5.268-1.465v-81.572
                c1.782-0.352,3.561-0.806,5.268-1.465c15.292-5.881,24.107-25.767,13.187-39.643c-4.345-5.522-11.387-8.85-18.453-7.604
                c-7.302,1.288-13.948,8.129-12.07,15.957c0.27,1.139,0.9,2.432,1.368,3.15c1.139,1.729,3.439,2.209,5.19,1.083
                c1.745-1.12,2.247-3.464,1.145-5.224c-0.103-0.166-0.298-0.599-0.342-0.759c-1.127-4.765,4.989-7.124,8.618-6.831
                c5.802,0.467,10.114,5.413,11.372,10.837c3.088,13.309-9.681,23.944-22.142,23.536c-12.774-0.418-23.094-10.527-25.587-22.754
                c-2.72-13.339,3.816-27.144,15.093-34.458c2.127-1.38,4.383-2.451,6.69-3.353c6.674,2.616,13.718,4.006,20.853,4.006
                c4.179,0,8.384-0.538,12.554-1.462c2.89,1.624,5.595,3.514,7.973,5.723c13.768,12.8,16.325,31.076,11.103,48.371
                c-5.055,16.741-7.632,34.191-7.642,51.679c-0.009,17.095,2.466,34.195,7.314,50.587c5.258,17.777,3.547,36.145-10.772,49.456
                c-2.375,2.204-5.071,4.089-7.954,5.711c-11.277-2.507-22.83-1.59-33.426,2.564c-2.306-0.905-4.562-1.977-6.693-3.357
                C66.46,403.277,64.053,401.209,61.91,398.818z M275.43,552.482c-11.691,5.958-26.387,4.925-36.609-3.508
                c-10.475-8.642-14.274-24.36-6.564-36.086c6.211-9.446,20.157-14.025,29.543-6.236c4.325,3.589,6.953,9.796,4.813,15.281
                c-1.39,3.561-6.72,8.366-10.549,4.769c-0.122-0.122-0.395-0.499-0.49-0.672c-0.938-1.864-3.201-2.614-5.071-1.685
                c-1.87,0.935-2.626,3.21-1.694,5.077c0.383,0.763,1.186,1.955,2.055,2.78c5.644,5.281,14.399,3.374,19.293-1.872
                c4.817-5.163,5.867-12.875,3.59-19.427c-5.951-17.124-28.293-19.874-41.321-9.366c-1.425,1.15-2.708,2.466-3.9,3.831l-70.646-40.789
                c0.587-1.72,1.086-3.489,1.365-5.292c2.502-15.851-9.596-32.994-26.712-31.385c-7.325,0.689-14.26,5.256-16.831,12.308
                c-2.552,6.999,0.073,16.113,7.783,18.446c1.133,0.339,2.589,0.424,3.417,0.386c2.068-0.122,3.615-1.886,3.517-3.953
                c-0.1-2.071-1.908-3.565-3.953-3.602c-0.226-0.003-0.665-0.044-0.806-0.078c-4.293-1.324-3.842-7.194-2.074-10.241
                c3.069-5.29,10.015-6.75,15.525-5.072c12.591,3.834,15.815,19.438,9.895,30.003c-6.061,10.817-19.386,15.395-31.099,12.311
                C104,474.748,94.362,461.698,93.63,447.522c-0.129-2.535,0.069-5.028,0.442-7.48c8.892-7.098,15.463-16.642,18.933-27.665
                c2.852-1.686,5.833-3.079,8.917-4.03c17.814-5.477,35.08,1.288,47.363,14.364c11.746,12.505,25.266,23.331,40.054,32.033
                c14.708,8.655,30.652,15.192,47.21,19.328c9.363,2.338,17.683,4.791,25.065,11.399c6.749,6.042,11.572,14.084,13.594,22.926
                c0.719,3.143,1.004,6.416,0.97,9.73c-7.813,8.516-12.796,18.98-14.496,30.237C279.744,549.91,277.686,551.33,275.43,552.482z
                M504.626,456.781c-3.933,11.987-14.71,21.356-27.424,22.472c-11.831,1.038-23.968-5.493-27.96-17.042
                c-3.61-10.445,1.163-23.695,12.678-26.428c5.252-1.246,11.667,0.49,14.501,5.394c1.752,3.031,2.211,8.919-2.052,10.223
                c-0.172,0.047-0.662,0.088-0.835,0.088c-2.171-0.135-3.872,1.475-3.994,3.555c-0.122,2.087,1.468,3.878,3.555,4.001
                c0.841,0.047,2.281-0.047,3.436-0.392c7.7-2.316,10.311-11.459,7.769-18.436c-2.572-7.06-9.506-11.624-16.837-12.312
                c-17.133-1.607-29.187,15.535-26.711,31.385c0.286,1.807,0.781,3.576,1.368,5.293l-70.646,40.787
                c-1.195-1.366-2.476-2.681-3.903-3.834c-13.074-10.54-35.282-7.715-41.314,9.36c-2.216,6.272-1.306,13.658,3.027,18.823
                c4.767,5.683,14.005,8.006,19.851,2.485c0.85-0.803,1.66-1.992,2.049-2.761c0.938-1.854,0.195-4.088-1.65-5.042
                c-1.851-0.96-4.129-0.216-5.099,1.619c-0.091,0.172-0.367,0.552-0.493,0.678c-3.538,3.384-8.673-0.78-10.223-4.047
                c-2.49-5.25-0.373-11.478,3.703-15.267c9.282-8.627,23.852-4.337,30.324,5.506c7.492,11.394,4.123,26.661-5.778,35.432
                c-10.196,9.032-25.417,10.266-37.396,4.162c-2.256-1.153-4.314-2.573-6.254-4.118c-1.698-11.252-6.68-21.715-14.493-30.234
                c-0.035-3.317,0.248-6.591,0.97-9.736c4.401-19.234,19.51-29.659,37.649-34.076c16.92-4.121,33.211-10.742,48.22-19.574
                c14.495-8.53,27.779-19.103,39.361-31.297c12.645-13.314,29.579-20.791,48.055-15.095c3.088,0.949,6.068,2.342,8.918,4.029
                c3.47,11.023,10.041,20.568,18.933,27.667c0.373,2.45,0.571,4.942,0.442,7.479C506.213,450.61,505.627,453.725,504.626,456.781z" 
    fill="rgba(0, 0, 0, 1.0)">
<!-- Color de las Flores al rededor del logo fill="rgba(0, 0, 0, 1.0)" 00AEEF-->
</path>

    </g></g><g><g data-element="icon" transform="scale(0.13333346896715187) translate(881.2490052338107 506.2490196226863)">
    
<!-- Pantalla del computador -->
    <path id="color_x5F_3_1_" fill="rgba(0, 0, 0, 1.0)" d="M452.91,242.227c-0.53,7.222,0.929,13.812,3.946,19.403v85.746H142.96v-143.55v-25.113    v-24.479h22.637h22.394h268.864v72.834C454.67,231.938,453.289,237.049,452.91,242.227z"></path> 

<!-- Borde y Mesa del computador -->
    <path id="color_x5F_3" fill="rgba(0, 0, 0, 1.0)" d="M122.599,358.681V235.869v-30.396v-62.538c0-4.997,4.056-9.061,9.07-9.061h56.442h25.357    h241.92c2.678,3.242,5.207,6.634,7.57,10.18c1.42,2.131,2.777,4.32,4.078,6.559c3.976,6.844,7.394,14.18,10.18,21.996v30.372    c-3.724,2.612-7.149,5.598-10.18,8.873c-4.251,4.594-7.726,9.751-10.18,15.215v-72.834H187.992h-22.394H142.96v24.479v25.113v143.55    h313.896V261.63c2.44,4.519,5.904,8.377,10.18,11.38c3.017,2.12,6.43,3.821,10.18,5.015v80.656c0,5.002-4.056,9.056-9.066,9.056    H131.669C126.655,367.737,122.599,363.683,122.599,358.681z M474.356,387.792c-1.684-1.567-3.897-2.457-6.205-2.457H131.669    c-2.296,0-4.521,0.89-6.207,2.457l-21.022,19.681l-19.962,18.687l-25.932,24.278c-2.716,2.551-3.605,6.483-2.24,9.943    c1.38,3.455,4.719,5.743,8.429,5.743h44.205h45.289h60.728h60.557h173.209c17.982-17.317,34.363-36.368,48.725-56.717    L474.356,387.792z M540.288,449.506l-18.606-17.416c-8.475,11.776-17.566,23.144-27.205,34.035h40.6c0.056-0.012,0.147,0,0.19,0    c5.01,0,9.066-4.072,9.066-9.082C544.332,453.892,542.715,451.121,540.288,449.506z">
    </path> 

<!-- Borde de color Azul fill="#00AEEF" -->
    <path id="color_x5F_2" fill="#00AEEF" d="M104.441,407.474l-19.962,18.687c-15.043-36.352-17.511-80.761-5.37-127.473    c8.46-32.571,23.592-64.247,43.49-93.216v30.396c-10.495,19.184-18.62,39.315-23.755,59.832    C88.543,336.89,91.049,375.74,104.441,407.474z M275.516,466.126c5.572,8.336,8.098,19.669,6.259,32.508    c-4.096,28.594-27.997,52.871-52.665,53.421c-20.97,0.473-35.059-16.45-35.088-38.955c-35.676-6.325-64.412-23.082-85.08-46.974    h45.289c13.764,8.431,29.625,14.453,47.4,17.537c3.519-6.627,8.084-12.593,13.328-17.537H275.516z M240.761,480.673    c-4.226,0.232-8.351,2.267-11.835,5.344c-4.362,3.843-7.69,9.355-8.737,15.461c-0.994,5.751,0.239,10.855,2.966,14.428    c2.535,3.329,6.363,5.328,11.016,5.157c9.745-0.367,19.17-9.922,20.921-21.198C256.829,488.706,250.361,480.134,240.761,480.673z     M548.889,227.734c-0.581,24.668-23.778,48.232-51.124,51.862c-7.498,0.994-14.455,0.368-20.548-1.572    c-3.75-1.194-7.163-2.895-10.18-5.015c-4.276-3.004-7.74-6.861-10.18-11.38c-3.017-5.59-4.477-12.18-3.946-19.403    c0.38-5.178,1.76-10.29,3.946-15.159c2.455-5.464,5.929-10.621,10.18-15.215c3.031-3.275,6.456-6.261,10.18-8.873    c2.132-1.495,4.358-2.871,6.669-4.101c-1.485-9.264-3.731-18.031-6.669-26.272c-2.786-7.816-6.205-15.152-10.18-21.996    c-1.301-2.238-2.658-4.427-4.078-6.559c-2.363-3.546-4.892-6.938-7.57-10.18C422.47,94.026,366.43,77.462,304.299,91.688    c-31.642,7.242-62.676,22.07-90.831,42.186h-25.357c35.896-29.74,77.162-51.764,119.393-61.791    c100.531-23.869,188.603,23.816,204.468,119.826C533.368,192.41,549.385,206.814,548.889,227.734z M519.398,232.192    c0.183-4.655-1.697-8.521-4.865-11.129c-3.379-2.793-8.244-4.135-13.734-3.267c-5.832,0.93-11.107,4.152-14.806,8.445    c-2.968,3.431-4.945,7.538-5.197,11.777c-0.57,9.623,7.596,16.293,18.292,14.748C509.868,251.215,519.014,241.934,519.398,232.192z">
    </path> 

<!-- Borde Verde fill="#00A79D" -->
    <path id="color_x5F_1" fill="#00A79D" d="M349.844,15.154c-2.12-12.131-14.571-18.084-30.806-13.735    c-18.985,5.09-36.653,22.535-39.702,39.269c-3.114,17.059,9.995,27.406,29.584,22.681c14.917-3.603,29.035-14.801,36.258-27.512    C464.07,21.273,563.513,93.113,561.206,225.869c-1.121,64.776-25.139,128.829-63.757,183.539    c-14.362,20.349-30.744,39.4-48.725,56.717c-61.059,58.805-140.513,97.584-221.735,98.905    C92.76,567.227,22.799,461.478,41.473,337.219c13.046-7.327,24.763-21.818,28.832-37.201c5.329-20.164-4.663-33.871-21.897-30.962    c-16.941,2.854-35.128,20.817-40.908,40.448c-4.945,16.819,0.661,29.86,12.885,32.255C-2.638,479.539,72.096,600,221.287,600    c102.501,0,202.553-54.069,273.189-133.874c9.639-10.89,18.73-22.259,27.205-34.035c44.988-62.516,72.611-136.508,72.611-211.211    C594.293,73.751,481.342-3.066,349.844,15.154z M328.356,28.192c-0.663,4.27-3.71,8.667-7.808,11.879    c-2.544,2.003-5.488,3.553-8.525,4.308c-7.844,1.958-13.242-2.085-12.061-8.955c1.168-6.809,8.38-13.94,16.132-15.958    c3.25-0.841,6.059-0.613,8.206,0.382C327.308,21.241,328.979,24.181,328.356,28.192z M25.979,315.259    c-0.943-2.244-1.088-5.169-0.136-8.53c2.296-8.001,9.72-15.348,16.626-16.446c6.944-1.097,10.857,4.537,8.641,12.628    c-0.846,3.132-2.506,6.159-4.599,8.762c-3.368,4.197-7.897,7.307-12.233,7.931C30.209,320.187,27.29,318.408,25.979,315.259z">
    </path>
    
    </g>
    <text transform="translate(79.2734375 230.68093872070312)" fill="rgba(0, 0, 0, 1.0)" font-family="New Rocker" font-size="64" data-element="company-name" dx="0 0 0 0 0" style="display: block;">Alape</text></g></g>
</svg>